{"scene":0,"asset":{"generator":"ImageToStl.com","version":"2.0"},"scenes":[{"name":"Scene","nodes":[0]}],"nodes":[{"name":"Node0","children":[1]},{"name":"Node1","mesh":0}],"materials":[{"name":"palette","pbrMetallicRoughness":{"baseColorFactor":[1.0,1.0,1.0,1.0],"metallicFactor":0.0,"roughnessFactor":1.0,"baseColorTexture":{"index":0}},"doubleSided":true}],"images":[{"bufferView":0,"name":"","mimeType":"image/png"}],"textures":[{"sampler":0,"source":0}],"samplers":[{"magFilter":9729,"minFilter":9987}],"meshes":[{"name":"Mesh0","primitives":[{"indices":3,"material":0,"attributes":{"POSITION":0,"NORMAL":1,"TEXCOORD_0":2}}]}],"accessors":[{"bufferView":1,"componentType":5126,"count":366,"type":"VEC3","min":[-0.5,0.0,-0.2],"max":[0.5,2.2,0.3]},{"bufferView":2,"componentType":5126,"count":366,"type":"VEC3"},{"bufferView":3,"componentType":5126,"count":366,"type":"VEC2"},{"bufferView":4,"componentType":5123,"count":2088,"type":"SCALAR"}],"bufferViews":[{"buffer":0,"byteLength":141,"byteOffset":0},{"target":34962,"buffer":0,"byteLength":4392,"byteOffset":144},{"target":34962,"buffer":0,"byteLength":4392,"byteOffset":4536},{"target":34962,"buffer":0,"byteLength":2928,"byteOffset":8928},{"target":34963,"buffer":0,"byteLength":4176,"byteOffset":11856}],"buffers":[{"byteLength":16032,"uri":"data:application/octet-stream;base64,"}]}