{"scene":0,"asset":{"generator":"ImageToStl.com","version":"2.0"},"scenes":[{"name":"Scene","nodes":[0]}],"nodes":[{"name":"Node0","children":[1]},{"name":"Node1","mesh":0}],"materials":[{"name":"palette","pbrMetallicRoughness":{"baseColorFactor":[1.0,1.0,1.0,1.0],"metallicFactor":0.0,"roughnessFactor":1.0,"baseColorTexture":{"index":0}},"doubleSided":true}],"images":[{"bufferView":0,"name":"","mimeType":"image/png"}],"textures":[{"sampler":0,"source":0}],"samplers":[{"magFilter":9729,"minFilter":9987}],"meshes":[{"name":"Mesh0","primitives":[{"indices":3,"material":0,"attributes":{"POSITION":0,"NORMAL":1,"TEXCOORD_0":2}}]}],"accessors":[{"bufferView":1,"componentType":5126,"count":1224,"type":"VEC3","min":[-2.0,0.0,-2.0],"max":[2.0,3.1,2.0]},{"bufferView":2,"componentType":5126,"count":1224,"type":"VEC3"},{"bufferView":3,"componentType":5126,"count":1224,"type":"VEC2"},{"bufferView":4,"componentType":5123,"count":7182,"type":"SCALAR"}],"bufferViews":[{"buffer":0,"byteLength":141,"byteOffset":0},{"target":34962,"buffer":0,"byteLength":14688,"byteOffset":144},{"target":34962,"buffer":0,"byteLength":14688,"byteOffset":14832},{"target":34962,"buffer":0,"byteLength":9792,"byteOffset":29520},{"target":34963,"buffer":0,"byteLength":14364,"byteOffset":39312}],"buffers":[{"byteLength":53676,"uri":"data:application/octet-stream;base64,"}]}