{"scene":0,"asset":{"generator":"ImageToStl.com","version":"2.0"},"scenes":[{"name":"Scene","nodes":[0]}],"nodes":[{"name":"Node0","children":[1]},{"name":"Node1","mesh":0}],"materials":[{"name":"palette","pbrMetallicRoughness":{"baseColorFactor":[1.0,1.0,1.0,1.0],"metallicFactor":0.0,"roughnessFactor":1.0,"baseColorTexture":{"index":0}},"doubleSided":true}],"images":[{"bufferView":0,"name":"","mimeType":"image/png"}],"textures":[{"sampler":0,"source":0}],"samplers":[{"magFilter":9729,"minFilter":9987}],"meshes":[{"name":"Mesh0","primitives":[{"indices":3,"material":0,"attributes":{"POSITION":0,"NORMAL":1,"TEXCOORD_0":2}}]}],"accessors":[{"bufferView":1,"componentType":5126,"count":294,"type":"VEC3","min":[-1.3,0.0,-1.1],"max":[1.3,4.0,2.23517E-08]},{"bufferView":2,"componentType":5126,"count":294,"type":"VEC3"},{"bufferView":3,"componentType":5126,"count":294,"type":"VEC2"},{"bufferView":4,"componentType":5123,"count":1746,"type":"SCALAR"}],"bufferViews":[{"buffer":0,"byteLength":141,"byteOffset":0},{"target":34962,"buffer":0,"byteLength":3528,"byteOffset":144},{"target":34962,"buffer":0,"byteLength":3528,"byteOffset":3672},{"target":34962,"buffer":0,"byteLength":2352,"byteOffset":7200},{"target":34963,"buffer":0,"byteLength":3492,"byteOffset":9552}],"buffers":[{"byteLength":13044,"uri":"data:application/octet-stream;base64,"}]}